<svg version="1.1" id="Layer_1" xmlns="http://www.w3.org/2000/svg" xmlns:xlink="http://www.w3.org/1999/xlink" x="0px" y="0px"
	 width="100%" viewBox="0 0 469 469" enable-background="new 0 0 469 469" xml:space="preserve">
<path fill="#000000" opacity="1.000000" stroke="none" 
	d="
M261.000000,470.000000 
	C174.000000,470.000000 87.500000,470.000000 1.000000,470.000000 
	C1.000000,313.666656 1.000000,157.333328 1.000000,1.000000 
	C157.333328,1.000000 313.666656,1.000000 470.000000,1.000000 
	C470.000000,157.333328 470.000000,313.666656 470.000000,470.000000 
	C400.500000,470.000000 331.000000,470.000000 261.000000,470.000000 
M149.802170,248.167511 
	C152.626190,247.563675 155.557114,246.156830 158.252975,246.515717 
	C164.752365,247.380920 170.372360,244.154602 175.256546,241.648239 
	C188.343048,234.932877 199.505875,225.756561 208.825027,213.659622 
	C214.158478,206.736389 215.745590,198.599045 220.561707,191.868439 
	C221.458527,190.615112 221.991684,188.739090 221.895386,187.200333 
	C221.479080,180.547592 221.094223,173.861084 220.045425,167.291031 
	C219.359207,162.992371 218.083603,158.602234 216.112549,154.743103 
	C213.849838,150.312927 210.941208,146.043427 207.575119,142.382797 
	C201.383057,135.648880 194.919586,129.106445 188.057816,123.065033 
	C182.701080,118.348717 176.478058,114.630524 170.815674,110.242111 
	C167.078751,107.345947 166.931259,104.462585 170.335373,101.936249 
	C181.946991,93.318756 193.626083,84.789902 205.391357,76.383888 
	C207.495148,74.880783 210.041183,73.812141 212.540756,73.085716 
	C217.806900,71.555267 223.165451,70.332893 228.508392,69.079147 
	C235.172318,67.515434 241.780426,64.377151 248.872116,68.438416 
	C249.226410,72.162453 250.071579,76.240318 249.907364,80.277130 
	C249.513199,89.966591 248.533966,99.630661 248.001312,109.316544 
	C247.520584,118.058372 247.830521,126.874046 246.838242,135.548080 
	C245.993774,142.929962 243.493301,150.044464 244.579910,157.724533 
	C245.793030,166.298599 245.835754,175.056198 247.346588,183.563660 
	C248.287964,188.864594 250.775070,193.952377 252.995667,198.945862 
	C254.856415,203.130173 257.744995,206.873657 259.457977,211.104065 
	C263.168854,220.268555 268.715271,228.132507 277.018219,233.234131 
	C283.160095,237.007904 290.331879,239.130127 297.107605,241.830765 
	C298.872864,242.534363 300.882446,243.017990 302.762939,242.968048 
	C309.167572,242.797958 315.619171,241.666641 321.950592,242.175064 
	C329.450653,242.777328 335.738739,238.884064 342.761993,237.951935 
	C344.152161,237.767441 345.311005,235.263000 346.629791,235.212234 
	C354.184998,234.921387 358.992706,229.699997 364.103088,225.449249 
	C369.615601,220.864029 374.414459,215.403030 379.389374,210.194824 
	C383.300110,206.100708 387.793976,202.276077 390.616699,197.497574 
	C394.852814,190.326401 399.011017,183.133484 400.609589,174.434494 
	C401.592743,169.084152 403.803528,164.058594 403.097229,158.331726 
	C402.689301,155.023972 403.949921,151.428055 403.194672,148.263733 
	C401.876617,142.741501 400.318726,137.289017 397.821777,131.993668 
	C395.104492,126.231010 391.407257,121.573143 387.614014,116.607765 
	C380.498779,107.293999 370.567230,102.229813 360.677368,97.596451 
	C351.909515,93.488770 342.763916,89.671906 332.765839,88.360886 
	C327.417664,87.659584 322.491760,84.202057 317.180450,82.659149 
	C305.973114,79.403481 302.153931,71.498871 301.691345,60.650726 
	C301.515167,56.518208 300.160797,52.305035 298.646362,48.398853 
	C297.249481,44.795921 295.027618,41.487392 292.967560,38.174545 
	C291.086060,35.148815 289.486877,31.584867 286.803101,29.485598 
	C276.952515,21.780317 265.240631,19.868446 253.058044,19.949411 
	C245.226517,20.001465 237.394333,19.954395 229.562851,20.009792 
	C227.383286,20.025209 225.169052,20.042488 223.034119,20.418640 
	C218.936966,21.140516 214.887527,22.131001 210.813965,22.989544 
	C205.598099,24.088848 200.141586,24.542818 195.216339,26.405472 
	C188.218506,29.051947 181.281219,32.190647 174.911087,36.088249 
	C164.951950,42.181797 155.349884,48.892464 145.855682,55.702953 
	C136.439697,62.457336 127.747719,70.307762 117.944588,76.400574 
	C112.740067,79.635269 105.943497,80.679863 99.701195,81.781746 
	C91.422226,83.243141 86.796005,89.176750 83.439796,95.450012 
	C79.483299,102.845291 74.706528,110.004753 73.400841,118.810150 
	C72.510040,124.817642 69.777603,130.545380 67.961441,136.426880 
	C67.486931,137.963593 67.081856,139.613693 67.118057,141.200958 
	C67.325188,150.285278 67.695625,159.365784 67.960312,168.449036 
	C68.017944,170.426880 67.236259,172.674225 67.930359,174.344910 
	C70.553062,180.657654 70.004707,187.681488 73.638962,193.950958 
	C77.158401,200.022308 78.172066,207.487854 81.072655,213.990280 
	C85.173424,223.183258 91.297806,231.074295 99.095650,237.522903 
	C106.819672,243.910461 116.013084,247.609268 125.694778,248.793961 
	C133.291885,249.723587 141.169098,248.364044 149.802170,248.167511 
M312.021332,433.260620 
	C312.017303,429.587982 311.984009,425.915070 312.023499,422.242889 
	C312.039520,420.751984 312.896729,418.699707 312.206757,417.863007 
	C307.279724,411.887878 302.400757,405.798157 296.834198,400.443817 
	C289.380585,393.274414 281.137268,386.931152 273.584351,379.858002 
	C268.449829,375.049683 268.353760,370.040802 272.493683,364.184875 
	C274.100281,361.912292 275.996124,359.843292 277.773224,357.692230 
	C283.951691,350.213440 290.198730,342.790070 296.292694,335.243042 
	C299.591858,331.157227 303.061462,327.109955 305.664276,322.590393 
	C308.001068,318.532715 309.677887,313.960052 310.838379,309.408691 
	C311.574860,306.520264 311.013367,303.236389 310.689575,300.166168 
	C310.494659,298.317932 309.293304,296.567383 309.144165,294.724396 
	C308.690094,289.112823 304.920441,285.212616 300.677856,283.510895 
	C291.634583,279.883606 282.311493,280.809357 273.359436,285.154663 
	C262.288208,290.528656 254.880966,299.980835 246.895584,308.707153 
	C241.180954,314.952026 236.241028,321.905853 230.756989,328.792572 
	C224.751617,322.859955 219.451324,317.749390 214.294861,312.497620 
	C208.118744,306.207367 202.455139,299.350067 195.839462,293.574646 
	C190.229446,288.677155 183.343628,285.271179 177.460175,280.648041 
	C171.856903,276.245056 165.807571,275.352203 159.310684,276.975555 
	C152.579071,278.657593 144.994476,291.838257 146.832901,298.294556 
	C148.257294,303.296906 149.333664,308.569214 151.765900,313.072845 
	C155.245850,319.516388 159.409546,325.703552 164.035522,331.386169 
	C169.569519,338.184174 176.146393,344.125885 181.804306,350.832642 
	C186.284317,356.143188 190.552231,361.774902 193.908661,367.822144 
	C195.281830,370.296173 195.046509,374.738708 193.756485,377.429108 
	C188.146271,389.129517 179.122482,398.805695 173.822021,410.831848 
	C171.318756,416.511475 167.768478,421.321472 168.791824,428.230652 
	C169.660400,434.094940 168.041595,439.832947 170.942062,446.056091 
	C173.985947,452.586945 178.904114,455.428406 184.347092,458.453735 
	C185.387589,459.032104 187.016388,459.730072 187.839661,459.314575 
	C191.162430,457.637695 195.005447,458.071594 198.326630,457.571472 
	C203.191513,456.838928 206.225937,454.753723 208.824783,451.423035 
	C211.490372,448.006805 213.532166,444.111816 216.028656,440.553833 
	C219.959152,434.952148 224.177475,429.549225 228.017181,423.888000 
	C231.110809,419.326782 233.575363,418.968597 238.328247,422.782440 
	C241.506149,425.332458 245.027496,427.488190 248.018936,430.230774 
	C257.587952,439.003601 267.427582,447.065491 281.286224,447.651947 
	C288.929047,447.975403 296.824310,448.957520 303.276855,443.861084 
	C306.602264,441.234528 308.888489,437.292236 312.021332,433.260620 
z"/>
<path fill="#00E0DF" opacity="1.000000" stroke="none" 
	d="
M149.362030,248.094482 
	C141.169098,248.364044 133.291885,249.723587 125.694778,248.793961 
	C116.013084,247.609268 106.819672,243.910461 99.095650,237.522903 
	C91.297806,231.074295 85.173424,223.183258 81.072655,213.990280 
	C78.172066,207.487854 77.158401,200.022308 73.638962,193.950958 
	C70.004707,187.681488 70.553062,180.657654 67.930359,174.344910 
	C67.236259,172.674225 68.017944,170.426880 67.960312,168.449036 
	C67.695625,159.365784 67.325188,150.285278 67.118057,141.200958 
	C67.081856,139.613693 67.486931,137.963593 67.961441,136.426880 
	C69.777603,130.545380 72.510040,124.817642 73.400841,118.810150 
	C74.706528,110.004753 79.483299,102.845291 83.439796,95.450012 
	C86.796005,89.176750 91.422226,83.243141 99.701195,81.781746 
	C105.943497,80.679863 112.740067,79.635269 117.944588,76.400574 
	C127.747719,70.307762 136.439697,62.457336 145.855682,55.702953 
	C155.349884,48.892464 164.951950,42.181797 174.911087,36.088249 
	C181.281219,32.190647 188.218506,29.051947 195.216339,26.405472 
	C200.141586,24.542818 205.598099,24.088848 210.813965,22.989544 
	C214.887527,22.131001 218.936966,21.140516 223.034119,20.418640 
	C225.169052,20.042488 227.383286,20.025209 229.562851,20.009792 
	C237.394333,19.954395 245.226517,20.001465 253.058044,19.949411 
	C265.240631,19.868446 276.952515,21.780317 286.803101,29.485598 
	C289.486877,31.584867 291.086060,35.148815 292.967560,38.174545 
	C295.027618,41.487392 297.249481,44.795921 298.646362,48.398853 
	C300.160797,52.305035 301.515167,56.518208 301.691345,60.650726 
	C302.153931,71.498871 305.973114,79.403481 317.180450,82.659149 
	C322.491760,84.202057 327.417664,87.659584 332.765839,88.360886 
	C342.763916,89.671906 351.909515,93.488770 360.677368,97.596451 
	C370.567230,102.229813 380.498779,107.293999 387.614014,116.607765 
	C391.407257,121.573143 395.104492,126.231010 397.821777,131.993668 
	C400.318726,137.289017 401.876617,142.741501 403.194672,148.263733 
	C403.949921,151.428055 402.689301,155.023972 403.097229,158.331726 
	C403.803528,164.058594 401.592743,169.084152 400.609589,174.434494 
	C399.011017,183.133484 394.852814,190.326401 390.616699,197.497574 
	C387.793976,202.276077 383.300110,206.100708 379.389374,210.194824 
	C374.414459,215.403030 369.615601,220.864029 364.103088,225.449249 
	C358.992706,229.699997 354.184998,234.921387 346.629791,235.212234 
	C345.311005,235.263000 344.152161,237.767441 342.761993,237.951935 
	C335.738739,238.884064 329.450653,242.777328 321.950592,242.175064 
	C315.619171,241.666641 309.167572,242.797958 302.762939,242.968048 
	C300.882446,243.017990 298.872864,242.534363 297.107605,241.830765 
	C290.331879,239.130127 283.160095,237.007904 277.018219,233.234131 
	C268.715271,228.132507 263.168854,220.268555 259.457977,211.104065 
	C257.744995,206.873657 254.856415,203.130173 252.995667,198.945862 
	C250.775070,193.952377 248.287964,188.864594 247.346588,183.563660 
	C245.835754,175.056198 245.793030,166.298599 244.579910,157.724533 
	C243.493301,150.044464 245.993774,142.929962 246.838242,135.548080 
	C247.830521,126.874046 247.520584,118.058372 248.001312,109.316544 
	C248.533966,99.630661 249.513199,89.966591 249.907364,80.277130 
	C250.071579,76.240318 249.226410,72.162453 248.872116,68.438416 
	C241.780426,64.377151 235.172318,67.515434 228.508392,69.079147 
	C223.165451,70.332893 217.806900,71.555267 212.540756,73.085716 
	C210.041183,73.812141 207.495148,74.880783 205.391357,76.383888 
	C193.626083,84.789902 181.946991,93.318756 170.335373,101.936249 
	C166.931259,104.462585 167.078751,107.345947 170.815674,110.242111 
	C176.478058,114.630524 182.701080,118.348717 188.057816,123.065033 
	C194.919586,129.106445 201.383057,135.648880 207.575119,142.382797 
	C210.941208,146.043427 213.849838,150.312927 216.112549,154.743103 
	C218.083603,158.602234 219.359207,162.992371 220.045425,167.291031 
	C221.094223,173.861084 221.479080,180.547592 221.895386,187.200333 
	C221.991684,188.739090 221.458527,190.615112 220.561707,191.868439 
	C215.745590,198.599045 214.158478,206.736389 208.825027,213.659622 
	C199.505875,225.756561 188.343048,234.932877 175.256546,241.648239 
	C170.372360,244.154602 164.752365,247.380920 158.252975,246.515717 
	C155.557114,246.156830 152.626190,247.563675 149.362030,248.094482 
M319.864471,186.124924 
	C322.279663,186.335617 324.694855,186.546326 327.255493,186.769699 
	C326.932068,186.255081 326.608032,185.739471 326.775177,186.005447 
	C328.930450,184.509415 331.477722,183.481552 332.906891,181.603043 
	C336.436432,176.963669 339.325470,171.843155 342.715790,167.089920 
	C345.555389,163.108765 345.812683,156.681564 343.213226,152.678665 
	C339.400665,146.807617 333.808716,143.296844 327.746002,140.266006 
	C323.839539,138.313080 320.177795,135.803345 316.149963,134.178955 
	C311.922668,132.474121 307.389343,131.528259 302.808899,130.198196 
	C303.183533,133.347473 303.948334,136.754272 303.915802,140.153427 
	C303.854309,146.572525 302.582001,153.058670 303.183044,159.386810 
	C304.058319,168.601761 306.272003,177.631714 314.380280,183.743805 
	C315.155243,184.327972 315.515259,185.523865 316.324738,185.982834 
	C317.049194,186.393600 318.128357,186.178787 319.864471,186.124924 
M137.994064,152.472351 
	C133.961136,150.145798 129.949387,147.780670 125.868210,145.542114 
	C125.364311,145.265717 124.053482,145.446732 123.880165,145.795380 
	C123.534477,146.490784 123.592262,147.467163 123.705765,148.297073 
	C124.331276,152.870575 125.062248,157.429718 125.681160,162.004044 
	C126.161804,165.556351 126.073929,169.254486 127.046875,172.656708 
	C128.985825,179.436768 134.204788,184.046616 139.283401,188.439407 
	C141.400848,190.270920 145.347015,192.325043 147.331238,191.513626 
	C152.290237,189.485748 156.615204,185.895157 161.152557,182.868622 
	C161.579147,182.584076 161.961838,181.840195 161.935776,181.331573 
	C161.683090,176.403320 160.618179,171.394455 157.061081,168.052841 
	C151.275253,162.617493 144.780151,157.937164 137.994064,152.472351 
z"/>
<path fill="#00E0DF" opacity="1.000000" stroke="none" 
	d="
M311.832794,433.602539 
	C308.888489,437.292236 306.602264,441.234528 303.276855,443.861084 
	C296.824310,448.957520 288.929047,447.975403 281.286224,447.651947 
	C267.427582,447.065491 257.587952,439.003601 248.018936,430.230774 
	C245.027496,427.488190 241.506149,425.332458 238.328247,422.782440 
	C233.575363,418.968597 231.110809,419.326782 228.017181,423.888000 
	C224.177475,429.549225 219.959152,434.952148 216.028656,440.553833 
	C213.532166,444.111816 211.490372,448.006805 208.824783,451.423035 
	C206.225937,454.753723 203.191513,456.838928 198.326630,457.571472 
	C195.005447,458.071594 191.162430,457.637695 187.839661,459.314575 
	C187.016388,459.730072 185.387589,459.032104 184.347092,458.453735 
	C178.904114,455.428406 173.985947,452.586945 170.942062,446.056091 
	C168.041595,439.832947 169.660400,434.094940 168.791824,428.230652 
	C167.768478,421.321472 171.318756,416.511475 173.822021,410.831848 
	C179.122482,398.805695 188.146271,389.129517 193.756485,377.429108 
	C195.046509,374.738708 195.281830,370.296173 193.908661,367.822144 
	C190.552231,361.774902 186.284317,356.143188 181.804306,350.832642 
	C176.146393,344.125885 169.569519,338.184174 164.035522,331.386169 
	C159.409546,325.703552 155.245850,319.516388 151.765900,313.072845 
	C149.333664,308.569214 148.257294,303.296906 146.832901,298.294556 
	C144.994476,291.838257 152.579071,278.657593 159.310684,276.975555 
	C165.807571,275.352203 171.856903,276.245056 177.460175,280.648041 
	C183.343628,285.271179 190.229446,288.677155 195.839462,293.574646 
	C202.455139,299.350067 208.118744,306.207367 214.294861,312.497620 
	C219.451324,317.749390 224.751617,322.859955 230.756989,328.792572 
	C236.241028,321.905853 241.180954,314.952026 246.895584,308.707153 
	C254.880966,299.980835 262.288208,290.528656 273.359436,285.154663 
	C282.311493,280.809357 291.634583,279.883606 300.677856,283.510895 
	C304.920441,285.212616 308.690094,289.112823 309.144165,294.724396 
	C309.293304,296.567383 310.494659,298.317932 310.689575,300.166168 
	C311.013367,303.236389 311.574860,306.520264 310.838379,309.408691 
	C309.677887,313.960052 308.001068,318.532715 305.664276,322.590393 
	C303.061462,327.109955 299.591858,331.157227 296.292694,335.243042 
	C290.198730,342.790070 283.951691,350.213440 277.773224,357.692230 
	C275.996124,359.843292 274.100281,361.912292 272.493683,364.184875 
	C268.353760,370.040802 268.449829,375.049683 273.584351,379.858002 
	C281.137268,386.931152 289.380585,393.274414 296.834198,400.443817 
	C302.400757,405.798157 307.279724,411.887878 312.206757,417.863007 
	C312.896729,418.699707 312.039520,420.751984 312.023499,422.242889 
	C311.984009,425.915070 312.017303,429.587982 311.832794,433.602539 
z"/>
<path fill="#000000" opacity="1.000000" stroke="none" 
	d="
M319.457764,186.182465 
	C318.128357,186.178787 317.049194,186.393600 316.324738,185.982834 
	C315.515259,185.523865 315.155243,184.327972 314.380280,183.743805 
	C306.272003,177.631714 304.058319,168.601761 303.183044,159.386810 
	C302.582001,153.058670 303.854309,146.572525 303.915802,140.153427 
	C303.948334,136.754272 303.183533,133.347473 302.808899,130.198196 
	C307.389343,131.528259 311.922668,132.474121 316.149963,134.178955 
	C320.177795,135.803345 323.839539,138.313080 327.746002,140.266006 
	C333.808716,143.296844 339.400665,146.807617 343.213226,152.678665 
	C345.812683,156.681564 345.555389,163.108765 342.715790,167.089920 
	C339.325470,171.843155 336.436432,176.963669 332.906891,181.603043 
	C331.477722,183.481552 328.930450,184.509415 326.775177,186.005447 
	C326.608032,185.739471 326.932068,186.255081 327.255493,186.769699 
	C324.694855,186.546326 322.279663,186.335617 319.457764,186.182465 
z"/>
<path fill="#000000" opacity="1.000000" stroke="none" 
	d="
M138.289230,152.705261 
	C144.780151,157.937164 151.275253,162.617493 157.061081,168.052841 
	C160.618179,171.394455 161.683090,176.403320 161.935776,181.331573 
	C161.961838,181.840195 161.579147,182.584076 161.152557,182.868622 
	C156.615204,185.895157 152.290237,189.485748 147.331238,191.513626 
	C145.347015,192.325043 141.400848,190.270920 139.283401,188.439407 
	C134.204788,184.046616 128.985825,179.436768 127.046875,172.656708 
	C126.073929,169.254486 126.161804,165.556351 125.681160,162.004044 
	C125.062248,157.429718 124.331276,152.870575 123.705765,148.297073 
	C123.592262,147.467163 123.534477,146.490784 123.880165,145.795380 
	C124.053482,145.446732 125.364311,145.265717 125.868210,145.542114 
	C129.949387,147.780670 133.961136,150.145798 138.289230,152.705261 
z"/>
</svg>